<?xml version="1.0" encoding="iso-8859-1"?>
<!-- Generator: Adobe Illustrator 19.0.0, SVG Export Plug-In . SVG Version: 6.00 Build 0)  -->
<svg version="1.1" id="Layer_1" xmlns="http://www.w3.org/2000/svg" xmlns:xlink="http://www.w3.org/1999/xlink" x="0px" y="0px"
	 viewBox="0 0 481.882 481.882" style="enable-background:new 0 0 481.882 481.882;" xml:space="preserve">
<path style="fill:#64798A;" d="M470.438,0H11.445C4.819,0,0,5.421,0,11.445v77.101h481.882V11.445
	C481.882,5.421,476.461,0,470.438,0z"/>
<path style="fill:#EBF0F3;" d="M481.882,89.148h-378.88c-2.409,0-4.819-1.807-5.421-3.614l-6.626-19.275
	c-0.602-2.409-3.012-3.614-5.421-3.614H26.504c-2.409,0-4.819,1.807-5.421,3.614l-6.626,19.275
	c-1.205,1.807-3.012,3.614-5.421,3.614H0v348.762h481.882V89.148z"/>
<path style="fill:#D5D6DB;" d="M0,437.911v32.527c0,6.626,5.421,11.445,11.445,11.445h458.391c6.626,0,11.445-5.421,11.445-11.445
	v-32.527H0z"/>
<circle style="fill:#FCD462;" cx="358.4" cy="31.322" r="13.252"/>
<circle style="fill:#44C4A1;" cx="405.384" cy="31.322" r="13.252"/>
<circle style="fill:#E56353;" cx="452.367" cy="31.322" r="13.252"/>
<path style="fill:#EBF0F3;" d="M105.412,80.113h81.92l-4.819-14.456c-0.602-2.409-3.012-3.614-5.421-3.614H98.786
	c0,0.602,0.602,0.602,0.602,1.205L105.412,80.113z"/>
<rect y="109.026" style="fill:#E1E6E9;" width="481.882" height="125.289"/>
<circle style="fill:#D5D6DB;" cx="25.901" cy="172.273" r="12.047"/>
<polygon style="fill:#EBF0F3;" points="19.275,172.273 27.708,180.104 27.708,163.84 "/>
<circle style="fill:#D5D6DB;" cx="455.981" cy="172.273" r="12.047"/>
<polygon style="fill:#EBF0F3;" points="462.607,172.273 454.174,180.104 454.174,163.84 "/>
<circle style="fill:#27A2DB;" cx="387.915" cy="456.584" r="9.035"/>
<circle style="fill:#E56353;" cx="416.226" cy="456.584" r="9.035"/>
<circle style="fill:#44C4A1;" cx="443.934" cy="456.584" r="9.035"/>
<g>
	<rect x="19.275" y="452.367" style="fill:#64798A;" width="129.506" height="9.035"/>
	<rect x="24.696" y="369.845" style="fill:#64798A;" width="86.739" height="9.035"/>
	<rect x="24.696" y="404.179" style="fill:#64798A;" width="58.428" height="9.035"/>
	<rect x="139.746" y="369.845" style="fill:#64798A;" width="86.739" height="9.035"/>
	<rect x="139.746" y="404.179" style="fill:#64798A;" width="58.428" height="9.035"/>
	<rect x="255.398" y="369.845" style="fill:#64798A;" width="86.739" height="9.035"/>
	<rect x="255.398" y="404.179" style="fill:#64798A;" width="58.428" height="9.035"/>
	<rect x="370.447" y="369.845" style="fill:#64798A;" width="86.739" height="9.035"/>
	<rect x="370.447" y="404.179" style="fill:#64798A;" width="58.428" height="9.035"/>
</g>
<path style="fill:#44C4A1;" d="M219.256,256h-72.282c-4.216,0-7.228,3.012-7.228,7.228v72.282c0,4.216,3.012,7.228,7.228,7.228
	h72.282c4.216,0,7.228-3.012,7.228-7.228v-72.282C226.485,259.012,223.473,256,219.256,256z"/>
<path style="fill:#FCD462;" d="M104.207,256H31.925c-4.216,0-7.228,3.012-7.228,7.228v72.282c0,4.216,3.012,7.228,7.228,7.228
	h72.282c4.216,0,7.228-3.012,7.228-7.228v-72.282C111.435,259.012,108.424,256,104.207,256z"/>
<path style="fill:#E56353;" d="M334.908,256h-72.282c-4.216,0-7.228,3.012-7.228,7.228v72.282c0,4.216,3.012,7.228,7.228,7.228
	h72.282c4.216,0,7.228-3.012,7.228-7.228v-72.282C342.136,259.012,338.522,256,334.908,256z"/>
<path style="fill:#27A2DB;" d="M449.958,256h-72.282c-4.216,0-7.228,3.012-7.228,7.228v72.282c0,4.216,3.012,7.228,7.228,7.228
	h72.282c4.216,0,7.228-3.012,7.228-7.228v-72.282C457.186,259.012,454.174,256,449.958,256z"/>
<rect x="17.468" y="18.071" style="fill:#EBF0F3;" width="307.802" height="26.504"/>
<g>
</g>
<g>
</g>
<g>
</g>
<g>
</g>
<g>
</g>
<g>
</g>
<g>
</g>
<g>
</g>
<g>
</g>
<g>
</g>
<g>
</g>
<g>
</g>
<g>
</g>
<g>
</g>
<g>
</g>
</svg>
